OpenSim_Sub11_CSPreOp_RCS.mot
version=1
nRows=40
nColumns=11
inDegrees=no
endheader
time	Top_Thigh	Med_Thigh	Bot_Thigh	Top_Shank	2nd_Top_Shank	2nd_Bot_Shank	Bot_Shank	BNOx	BNOy	BNOZ
0	1925.13323975	1786.59845962	1740.35164490	1367.30374548	1492.92835888	1301.96075610	1228.92800516	354.80748840	-77.00348180	170.20686269
0.01000000	1925.33393211	1786.44298267	1740.05271170	1367.49696807	1493.44469150	1301.91447458	1228.25774527	354.80631735	-77.00484999	170.21664527
0.02000000	1925.61645002	1786.32278220	1739.78104875	1367.71081892	1493.97700601	1301.85228118	1227.52343588	354.80526447	-77.00592263	170.22694048
0.03000000	1925.97447031	1786.23535997	1739.53518946	1367.94347011	1494.52288918	1301.77553113	1226.73206918	354.80434064	-77.00671871	170.23766123
0.04000000	1926.40166984	1786.17821774	1739.31366729	1368.19309376	1495.07992776	1301.68557968	1225.89063736	354.80355673	-77.00725722	170.24872042
0.05000000	1926.89172545	1786.14885727	1739.11501567	1368.45786197	1495.64570851	1301.58378206	1225.00613262	354.80292363	-77.00755715	170.26003097
0.06000000	1927.43831397	1786.14478031	1738.93776802	1368.73594682	1496.21781821	1301.47149351	1224.08554715	354.80245220	-77.00763749	170.27150579
0.07000000	1928.03511227	1786.16348861	1738.78045779	1369.02552044	1496.79384361	1301.35006925	1223.13587315	354.80215334	-77.00751722	170.28305778
0.08000000	1928.67579718	1786.20248395	1738.64161840	1369.32475491	1497.37137148	1301.22086454	1222.16410282	354.80203790	-77.00721534	170.29459985
0.09000000	1929.35404554	1786.25926806	1738.51978329	1369.63182234	1497.94798859	1301.08523459	1221.17722835	354.80211678	-77.00675083	170.30604491
0.10000000	1930.06353421	1786.33134272	1738.41348590	1369.94489482	1498.52128168	1300.94453465	1220.18224193	354.80240085	-77.00614269	170.31730588
0.11000000	1930.79794002	1786.41620967	1738.32125966	1370.26214447	1499.08883753	1300.80011996	1219.18613576	354.80290099	-77.00540990	170.32829565
0.12000000	1931.55093982	1786.51137068	1738.24163801	1370.58174338	1499.64824291	1300.65334575	1218.19590203	354.80362806	-77.00457144	170.33892715
0.13000000	1932.31621046	1786.61432750	1738.17315437	1370.90186364	1500.19708457	1300.50556726	1217.21853294	354.80459296	-77.00364632	170.34911327
0.14000000	1933.08742879	1786.72258189	1738.11434219	1371.22067737	1500.73294927	1300.35813971	1216.26102069	354.80580656	-77.00265351	170.35876692
0.15000000	1933.85827164	1786.83363560	1738.06373489	1371.53635666	1501.25342379	1300.21241836	1215.33035747	354.80727974	-77.00161201	170.36780102
0.16000000	1934.62241586	1786.94499040	1738.01986592	1371.84707362	1501.75609488	1300.06975842	1214.43353548	354.80902337	-77.00054081	170.37612848
0.17000000	1935.37367149	1787.05420097	1737.98129799	1372.15104014	1502.23860563	1299.93148564	1213.57738507	354.81104787	-76.99945851	170.38366449
0.18000000	1936.10891193	1787.16003968	1737.94726756	1372.44738360	1502.69989458	1299.79824700	1212.76501441	354.81335318	-76.99837500	170.39037701
0.19000000	1936.82807394	1787.26249653	1737.91768480	1372.73614681	1503.14019571	1299.67001076	1211.99580950	354.81592873	-76.99729144	170.39628673
0.20000000	1937.53122748	1787.36161446	1737.89248916	1373.01741243	1503.55979934	1299.54671569	1211.26899446	354.81876351	-76.99620861	170.40141665
0.21000000	1938.21844252	1787.45743642	1737.87162012	1373.29126307	1503.95899578	1299.42830054	1210.58379346	354.82184650	-76.99512729	170.40578976
0.22000000	1938.88978900	1787.55000535	1737.85501713	1373.55778136	1504.33807533	1299.31470406	1209.93943062	354.82516668	-76.99404827	170.40942904
0.23000000	1939.54533689	1787.63936420	1737.84261966	1373.81704995	1504.69732832	1299.20586500	1209.33513011	354.82871305	-76.99297232	170.41235749
0.24000000	1940.18515615	1787.72555592	1737.83436717	1374.06915146	1505.03704505	1299.10172212	1208.77011606	354.83247457	-76.99190021	170.41459810
0.25000000	1940.80931672	1787.80862346	1737.83019912	1374.31416852	1505.35751583	1299.00221418	1208.24361262	354.83644023	-76.99083275	170.41617386
0.26000000	1941.41788857	1787.88860975	1737.83005498	1374.55218376	1505.65903097	1298.90727992	1207.75484393	354.84059902	-76.98977070	170.41710776
0.27000000	1942.01094166	1787.96555775	1737.83387420	1374.78327982	1505.94188079	1298.81685810	1207.30303415	354.84493992	-76.98871484	170.41742279
0.28000000	1942.58854594	1788.03951039	1737.84159625	1375.00753933	1506.20635559	1298.73088748	1206.88740742	354.84945191	-76.98766596	170.41714195
0.29000000	1943.15077138	1788.11051064	1737.85316060	1375.22504492	1506.45274569	1298.64930681	1206.50718788	354.85412398	-76.98662483	170.41628821
0.30000000	1943.69768792	1788.17860143	1737.86850670	1375.43587922	1506.68134140	1298.57205485	1206.16159968	354.85894511	-76.98559224	170.41488459
0.31000000	1944.22936553	1788.24382571	1737.88757402	1375.64012487	1506.89243303	1298.49907034	1205.84986696	354.86390428	-76.98456897	170.41295406
0.32000000	1944.74587416	1788.30622642	1737.91030202	1375.83786449	1507.08631088	1298.43029205	1205.57121387	354.86899048	-76.98355580	170.41051962
0.33000000	1945.24728377	1788.36584651	1737.93663016	1376.02918071	1507.26326528	1298.36565872	1205.32486456	354.87419268	-76.98255351	170.40760426
0.34000000	1945.73366432	1788.42272893	1737.96649790	1376.21415618	1507.42358654	1298.30510912	1205.11004317	354.87949988	-76.98156287	170.40423096
0.35000000	1946.20508577	1788.47691662	1737.99984472	1376.39287351	1507.56756495	1298.24858199	1204.92597385	354.88490105	-76.98058468	170.40042273
0.36000000	1946.66161807	1788.52845254	1738.03661006	1376.56541535	1507.69549084	1298.19601609	1204.77188074	354.89038517	-76.97961970	170.39620254
0.37000000	1947.10333119	1788.57737961	1738.07673340	1376.73186432	1507.80765452	1298.14735017	1204.64698799	354.89594124	-76.97866873	170.39159340
0.38000000	1947.53029507	1788.62374080	1738.12015419	1376.89230306	1507.90434630	1298.10252300	1204.55051975	354.90155824	-76.97773254	170.38661830
0.39000000	1947.94257968	1788.66757905	1738.16681190	1377.04681419	1507.98585648	1298.06147331	1204.48170015	354.90722514	-76.97681191	170.38130021
